HIERARCHY
ROOT Hips
{
	OFFSET -13.091600 -28.302996 44.698402
	CHANNELS 6 Xposition Yposition Zposition Zrotation Xrotation Yrotation
	JOINT Chest
	{
		OFFSET -0.673000 0.623899 5.369202
		CHANNELS 6 Xposition Yposition Zposition Zrotation Xrotation Yrotation
		JOINT Chest2
		{
			OFFSET 0.000000 0.000000 4.415001
			CHANNELS 6 Xposition Yposition Zposition Zrotation Xrotation Yrotation
			JOINT Neck
			{
				OFFSET 0.000000 0.000002 10.273300
				CHANNELS 6 Xposition Yposition Zposition Zrotation Xrotation Yrotation
				JOINT Head
				{
					OFFSET 0.000000 0.000000 2.173897
					CHANNELS 6 Xposition Yposition Zposition Zrotation Xrotation Yrotation
					End Site
					{
						OFFSET 0.000000 0.000000 9.961800
					}
				}
			}
			JOINT LeftCollar
			{
				OFFSET 2.359900 -0.565201 5.928101
				CHANNELS 6 Xposition Yposition Zposition Zrotation Xrotation Yrotation
				JOINT LeftShoulder
				{
					OFFSET 5.443700 0.000000 0.000000
					CHANNELS 6 Xposition Yposition Zposition Zrotation Xrotation Yrotation
					JOINT LeftElbow
					{
						OFFSET 0.000000 0.000000 -10.615799
						CHANNELS 6 Xposition Yposition Zposition Zrotation Xrotation Yrotation
						JOINT LeftWrist
						{
							OFFSET 0.000000 -0.000002 -13.110302
							CHANNELS 6 Xposition Yposition Zposition Zrotation Xrotation Yrotation
							End Site
							{
								OFFSET 0.000000 0.000000 -2.173901
							}
						}
					}
				}
			}
			JOINT RightCollar
			{
				OFFSET -2.636600 -1.718800 6.889698
				CHANNELS 6 Xposition Yposition Zposition Zrotation Xrotation Yrotation
				JOINT RightShoulder
				{
					OFFSET -4.139101 0.000000 0.000000
					CHANNELS 6 Xposition Yposition Zposition Zrotation Xrotation Yrotation
					JOINT RightElbow
					{
						OFFSET 0.000000 0.000000 -10.471802
						CHANNELS 6 Xposition Yposition Zposition Zrotation Xrotation Yrotation
						JOINT RightWrist
						{
							OFFSET 0.000000 0.000000 -12.281898
							CHANNELS 6 Xposition Yposition Zposition Zrotation Xrotation Yrotation
							End Site
							{
								OFFSET 0.000000 -0.000002 -2.173901
							}
						}
					}
				}
			}
		}
	}
	JOINT LeftHip
	{
		OFFSET 2.273400 0.176701 -2.518002
		CHANNELS 6 Xposition Yposition Zposition Zrotation Xrotation Yrotation
		JOINT LeftKnee
		{
			OFFSET 0.000000 -0.000002 -20.456402
			CHANNELS 6 Xposition Yposition Zposition Zrotation Xrotation Yrotation
			JOINT LeftAnkle
			{
				OFFSET 0.000000 -0.000002 -16.635300
				CHANNELS 6 Xposition Yposition Zposition Zrotation Xrotation Yrotation
				End Site
				{
					OFFSET 0.000000 -8.812399 0.000001
				}
			}
		}
	}
	JOINT RightHip
	{
		OFFSET -1.914800 0.018101 -2.699299
		CHANNELS 6 Xposition Yposition Zposition Zrotation Xrotation Yrotation
		JOINT RightKnee
		{
			OFFSET 0.000000 -0.000002 -20.148901
			CHANNELS 6 Xposition Yposition Zposition Zrotation Xrotation Yrotation
			JOINT RightAnkle
			{
				OFFSET 0.000000 -0.000002 -16.838301
				CHANNELS 6 Xposition Yposition Zposition Zrotation Xrotation Yrotation
				End Site
				{
					OFFSET 0.000000 -8.328398 0.000001
				}
			}
		}
	}
}
MOTION
Frames: 4
Frame Time: 0.041667
-10.461401 20.735411 49.698803 3554.878067 -0.781813 1.382715 -0.672996 0.623898 5.369208 -2.075042 18.260516 4.565981 0.000003 0.000005 4.415006 -0.327027 -0.834205 -0.141548 -0.000003 -0.000004 10.273299 3.197900 36.330709 2.122130 -0.000003 0.000002 2.173903 1.769924 1.791413 0.923057 2.359897 -0.565199 5.928098 4.532876 0.258178 -16.352265 5.443695 -0.000002 0.000000 -42.968918 414.700755 -27.441421 -0.000004 -0.000002 -10.615796 517.145751 -187.787254 180.677696 0.000006 -0.000003 -13.110300 -1920.871913 170.008722 -505.152923 -2.636603 -1.718800 6.889704 181.259888 -180.275029 189.809249 -4.139106 -0.000008 -0.000002 -183.612875 -196.436172 247.336231 -0.000004 -0.000000 -10.471796 12.621392 0.305635 -362.572013 -0.000004 -0.000001 -12.281895 0.609425 5.142189 -10.042776 2.273404 0.176701 -2.518003 -517.678834 -167.704517 -181.393323 0.000001 -0.000003 -20.456402 889.168779 150.475556 -179.057056 -0.000004 -0.000000 -16.635300 -371.827903 51.940976 15.016297 -1.914795 0.018102 -2.699296 157.130059 188.332207 183.947868 -0.000003 -0.000000 -20.148901 -898.773938 -205.467404 175.655062 0.000001 -0.000002 -16.838305 1087.683146 60.960497 -15.897255
-10.507901 20.727011 49.741302 3555.105376 -0.840636 1.286304 -0.673002 0.623899 5.369215 -2.253654 17.975668 4.615798 0.000006 0.000003 4.415005 -0.338146 -0.830006 -0.137187 -0.000001 -0.000005 10.273303 3.408756 36.223287 1.959615 -0.000002 -0.000010 2.173896 1.803921 1.764004 1.123799 2.359898 -0.565205 5.928109 4.654525 0.195009 -16.870695 5.443694 -0.000003 -0.000000 -42.236175 414.740807 -28.146060 -0.000002 0.000004 -10.615789 517.342952 -187.955673 180.643518 0.000012 -0.000000 -13.110296 -1922.165169 170.124057 -504.946487 -2.636606 -1.718808 6.889709 180.912204 -180.101447 190.587741 -4.139097 -0.000006 -0.000015 -183.312510 -197.999521 247.819754 0.000004 -0.000008 -10.471794 11.118202 0.091185 -362.780252 -0.000008 -0.000002 -12.281893 0.177956 5.267570 -10.387128 2.273400 0.176701 -2.517996 -517.845108 -167.786029 -181.432637 -0.000000 0.000000 -20.456400 888.747603 150.574198 -178.793698 -0.000002 0.000001 -16.635298 -371.861836 52.359923 15.606940 -1.914797 0.018102 -2.699294 157.607339 188.117999 184.167035 -0.000002 -0.000005 -20.148897 -899.356198 -204.847823 175.614614 0.000001 -0.000007 -16.838303 1088.045091 62.291305 -16.321893
-10.550903 20.724512 49.775303 3555.211818 -0.841520 1.181742 -0.673000 0.623902 5.369205 -2.236954 17.661293 4.697043 -0.000001 -0.000002 4.415004 -0.328399 -0.819242 -0.135684 0.000001 0.000003 10.273295 3.504031 36.082411 1.802321 -0.000003 0.000002 2.173902 1.804064 1.747099 1.167542 2.359901 -0.565198 5.928096 4.694002 0.178063 -17.370576 5.443700 -0.000000 -0.000011 -40.691928 414.544808 -29.654707 -0.000003 0.000004 -10.615796 516.719438 -188.092099 180.725262 0.000006 -0.000005 -13.110294 -1923.102817 170.324168 -504.702403 -2.636601 -1.718800 6.889702 180.934826 -179.112627 191.482263 -4.139095 -0.000010 -0.000003 -183.376195 -200.325227 248.304724 0.000002 -0.000008 -10.471800 9.416610 -0.328525 -363.107773 -0.000003 0.000001 -12.281898 0.207380 5.555008 -10.614409 2.273401 0.176702 -2.517993 -518.094383 -167.818267 -181.461611 -0.000001 0.000000 -20.456398 888.165780 150.604319 -178.455918 -0.000001 -0.000000 -16.635298 -371.679934 52.643406 16.000276 -1.914799 0.018105 -2.699291 158.007902 188.035859 184.343882 0.000001 -0.000005 -20.148899 -899.554546 -204.437001 175.506273 -0.000000 -0.000004 -16.838305 1088.164538 63.272270 -16.404970
-10.588899 20.726915 49.807304 3555.349951 -0.795035 1.126359 -0.673000 0.623896 5.369206 -2.236376 17.305987 4.678564 0.000005 0.000000 4.415011 -0.388049 -0.810416 -0.133578 -0.000002 -0.000002 10.273308 3.319791 35.954153 1.983998 -0.000003 -0.000004 2.173895 2.061975 1.689839 1.155751 2.359896 -0.565204 5.928103 4.818146 0.243477 -18.161203 5.443702 -0.000005 -0.000003 -39.492615 414.129095 -30.915591 0.000002 -0.000002 -10.615792 517.179083 -188.024767 180.789288 0.000011 -0.000003 -13.110298 -1925.096795 170.522038 -504.690218 -2.636603 -1.718804 6.889703 180.790599 -179.010652 192.158616 -4.139097 -0.000006 -0.000013 -183.357139 -201.691060 248.934987 0.000002 -0.000004 -10.471802 7.798563 -0.527469 -363.463107 -0.000004 0.000005 -12.281890 0.216882 5.715421 -10.676124 2.273396 0.176701 -2.517998 -518.110720 -167.707235 -181.459193 -0.000002 -0.000000 -20.456398 888.169714 150.572340 -178.494235 -0.000001 0.000006 -16.635296 -372.278969 52.963363 16.194922 -1.914798 0.018102 -2.699298 157.991127 188.104981 184.384426 0.000002 -0.000006 -20.148899 -899.098508 -204.286450 175.312938 -0.000002 -0.000002 -16.838303 1087.923459 63.980130 -16.517868
